<svg id="Layer_1" data-name="Layer 1" xmlns="http://www.w3.org/2000/svg" viewBox="0 0 1008 612"><defs><style>.cls-1{fill:none;}.cls-2{fill:#8bd3e6;}.cls-3{fill:#343741;}.cls-4{fill:#0084d4;}</style></defs><title>ENV_LogoSet_FINAL2_OL_RGB</title><polygon class="cls-1" points="185.53 299.1 202.78 293.49 185.53 287.89 168.29 293.49 185.53 299.1"/><polygon class="cls-2" points="126 180 126 218.67 202.78 243.62 262.22 224.3 262.22 224.26 126 180"/><polygon class="cls-2" points="126 229.88 126 268.54 126.03 268.55 185.53 249.22 126 229.88"/><polygon class="cls-2" points="202.78 293.49 262.22 274.18 262.22 274.14 245.04 268.55 185.53 287.89 202.78 293.49"/><polygon class="cls-2" points="202.78 343.37 262.22 324.05 262.22 324.01 245.04 318.43 185.53 337.76 202.78 343.37"/><polygon class="cls-2" points="168.29 293.49 126 307.23 126 318.42 126.03 318.43 185.53 299.1 168.29 293.49"/><polygon class="cls-3" points="126 318.44 126 357.11 185.53 337.76 126.03 318.43 126 318.44"/><polygon class="cls-3" points="185.53 299.1 245.04 318.43 262.22 312.85 262.22 312.81 202.78 293.49 185.53 299.1"/><polygon class="cls-4" points="262.22 312.81 262.22 274.18 202.78 293.49 262.22 312.81"/><polygon class="cls-4" points="126.03 318.43 185.53 337.76 245.04 318.43 185.53 299.1 126.03 318.43"/><polygon class="cls-3" points="126 368.31 126 406.98 262.22 362.72 262.22 362.68 202.78 343.37 126 368.31"/><polygon class="cls-4" points="262.22 362.68 262.22 324.05 202.78 343.37 262.22 362.68"/><polygon class="cls-3" points="185.53 249.22 245.04 268.55 262.22 262.97 262.22 262.93 202.78 243.62 185.53 249.22"/><polygon class="cls-3" points="185.53 287.89 126.03 268.55 126 268.56 126 279.75 168.29 293.49 185.53 287.89"/><polygon class="cls-4" points="262.22 262.93 262.22 224.3 202.78 243.62 262.22 262.93"/><polygon class="cls-4" points="126.03 268.55 185.53 287.89 245.04 268.55 185.53 249.22 126.03 268.55"/><polygon class="cls-4" points="126 279.75 126 307.23 168.29 293.49 126 279.75"/><polygon class="cls-4" points="306.39 323.2 306.39 265.11 340.15 265.11 340.15 274.54 317.41 274.54 317.41 288.17 337.22 288.17 335.3 297.77 317.41 297.77 317.41 313.77 340.22 313.77 340.22 323.2 306.39 323.2"/><polygon class="cls-4" points="401.2 323.2 373.83 283.21 373.83 323.2 363.47 323.2 363.47 265.11 374 265.11 400.11 303.16 400.11 265.11 410.46 265.11 410.46 323.2 401.2 323.2"/><polygon class="cls-4" points="462.5 323.45 451.55 323.45 429.56 264.59 441.96 264.59 457.45 309.05 472.69 265.1 484.3 265.1 462.5 323.45"/><path class="cls-4" d="M582,323.87a42,42,0,0,1-18.27-4l1.69-10.18c4.88,2.86,10.94,5.13,16.75,5.13,5.14,0,8.67-2.44,8.67-7.07,0-4.29-2-6.06-10.44-9.68-11.29-4.63-15.83-8.33-15.83-17.36,0-10.27,7.92-16.24,18.78-16.24A31.34,31.34,0,0,1,598.66,268L597,278.07a25.89,25.89,0,0,0-13.73-4.55c-5.55,0-8,2.7-8,6.23,0,3.71,1.86,5.48,9.93,8.85,12,4.88,16.34,9,16.34,18,0,11.37-8.33,17.26-19.53,17.26"/><polygon class="cls-4" points="648.18 274.79 648.18 323.2 636.98 323.2 636.98 274.79 619.72 274.79 619.72 265.1 665.94 265.1 663.76 274.79 648.18 274.79"/><polygon class="cls-4" points="723.88 323.2 696.52 283.21 696.52 323.2 686.15 323.2 686.15 265.11 696.69 265.11 722.79 303.16 722.79 265.11 733.15 265.11 733.15 323.2 723.88 323.2"/><polygon class="cls-4" points="840.76 274.79 840.76 323.2 829.56 323.2 829.56 274.79 812.3 274.79 812.3 265.1 857.95 265.1 855.77 274.79 840.76 274.79"/><polygon class="cls-4" points="505.73 323.08 505.73 264.98 539.5 264.98 539.5 274.41 516.76 274.41 516.76 288.05 536.57 288.05 534.64 297.65 516.76 297.65 516.76 313.65 539.57 313.65 539.57 323.08 505.73 323.08"/><polygon class="cls-4" points="759 323.23 759 265.13 792.77 265.13 792.77 274.55 770.04 274.55 770.04 288.19 789.84 288.19 787.92 297.8 770.04 297.8 770.04 313.8 792.84 313.8 792.84 323.23 759 323.23"/><rect class="cls-1" width="1008" height="612"/></svg>