<svg width="47.09" height="36.289" viewBox="0 0 47.09 36.289" xmlns="http://www.w3.org/2000/svg"><g id="svgGroup" stroke-linecap="round" fill-rule="evenodd" font-size="9pt" stroke="#c9d1d9" stroke-width="0.25mm" fill="#c9d1d9" style="stroke:#c9d1d9;stroke-width:0.25mm;fill:#c9d1d9"><path d="M 34.199 28.555 L 30.781 28.555 L 21.875 4.004 L 21.719 4.004 Q 21.771 4.72 21.831 5.804 A 198.394 198.394 0 0 1 21.846 6.064 A 115.703 115.703 0 0 1 21.909 7.378 A 146.285 146.285 0 0 1 21.963 8.799 A 87.654 87.654 0 0 1 22.012 11.699 L 22.012 28.555 L 18.34 28.555 L 18.34 0 L 24.102 0 L 32.559 23.262 L 32.695 23.262 L 41.367 0 L 47.09 0 L 47.09 28.555 L 43.223 28.555 L 43.223 11.465 A 93.305 93.305 0 0 1 43.245 9.471 A 105.183 105.183 0 0 1 43.262 8.779 A 109.5 109.5 0 0 1 43.308 7.417 A 93.978 93.978 0 0 1 43.369 6.123 A 198.023 198.023 0 0 1 43.403 5.521 Q 43.449 4.715 43.49 4.126 A 65.473 65.473 0 0 1 43.496 4.043 L 43.32 4.043 L 34.199 28.555 Z M 0 35.801 L 0 32.422 Q 0.625 32.598 1.348 32.715 A 9.142 9.142 0 0 0 2.387 32.821 A 10.864 10.864 0 0 0 2.891 32.832 Q 3.984 32.832 4.883 32.402 A 2.856 2.856 0 0 0 5.943 31.516 A 3.922 3.922 0 0 0 6.309 30.918 Q 6.833 29.869 6.836 28.007 A 13.299 13.299 0 0 0 6.836 27.988 L 6.836 0 L 10.859 0 L 10.859 27.793 A 14.722 14.722 0 0 1 10.732 29.792 Q 10.591 30.819 10.294 31.678 A 7.423 7.423 0 0 1 9.912 32.588 A 6.559 6.559 0 0 1 8.574 34.42 A 5.944 5.944 0 0 1 7.227 35.381 A 7.848 7.848 0 0 1 4.85 36.156 A 10.497 10.497 0 0 1 3.145 36.289 A 13.297 13.297 0 0 1 2.287 36.263 Q 1.898 36.238 1.553 36.188 A 7.486 7.486 0 0 1 1.328 36.152 A 9.036 9.036 0 0 1 0.732 36.028 Q 0.452 35.96 0.211 35.878 A 4.766 4.766 0 0 1 0 35.801 Z" vector-effect="non-scaling-stroke"/></g></svg>