<svg width="43.945" height="35.742" viewBox="0 0 43.945 35.742" xmlns="http://www.w3.org/2000/svg"><g id="svgGroup" stroke-linecap="round" fill-rule="evenodd" font-size="9pt" stroke="#000000" stroke-width="0.25mm" fill="#000000" style="stroke:#000000;stroke-width:0.25mm;fill:#000000"><path d="M 31.465 28.555 L 29.863 28.555 L 19.375 2.188 L 19.277 2.188 Q 19.316 2.91 19.346 3.701 A 112.118 112.118 0 0 1 19.384 4.926 A 126.738 126.738 0 0 1 19.395 5.352 A 76.659 76.659 0 0 1 19.413 6.685 A 87.208 87.208 0 0 1 19.414 7.148 L 19.414 28.555 L 17.5 28.555 L 17.5 0 L 20.547 0 L 30.664 25.43 L 30.781 25.43 L 40.977 0 L 43.945 0 L 43.945 28.555 L 41.973 28.555 L 41.973 6.914 Q 41.973 6.152 41.992 5.352 A 126.049 126.049 0 0 1 42.041 3.76 Q 42.07 2.969 42.109 2.227 L 41.992 2.227 L 31.465 28.555 Z M 0 35.254 L 0 33.418 A 5.754 5.754 0 0 0 0.535 33.59 Q 0.914 33.692 1.367 33.77 A 9.751 9.751 0 0 0 2.72 33.901 A 11.024 11.024 0 0 0 3.047 33.906 A 6.572 6.572 0 0 0 4.151 33.819 Q 5.009 33.672 5.645 33.281 A 3.584 3.584 0 0 0 6.965 31.831 A 4.586 4.586 0 0 0 7.148 31.426 A 6.345 6.345 0 0 0 7.482 30.237 Q 7.637 29.401 7.637 28.379 L 7.637 0 L 9.648 0 L 9.648 28.34 A 12.161 12.161 0 0 1 9.512 30.208 Q 9.337 31.336 8.936 32.275 Q 8.223 33.945 6.777 34.844 A 5.603 5.603 0 0 1 5.132 35.518 Q 4.411 35.693 3.568 35.731 A 10.594 10.594 0 0 1 3.086 35.742 A 13.677 13.677 0 0 1 2.277 35.72 Q 1.722 35.687 1.27 35.605 Q 0.686 35.501 0.252 35.35 A 4.047 4.047 0 0 1 0 35.254 Z" vector-effect="non-scaling-stroke"/></g></svg>